<svg xmlns="http://www.w3.org/2000/svg" xmlns:xlink="http://www.w3.org/1999/xlink" width="450" zoomAndPan="magnify" viewBox="0 0 337.5 112.499997" height="150" preserveAspectRatio="xMidYMid meet" version="1.2"><defs><clipPath id="f6f8bbe0af"><path d="M 86 32 L 327.800781 32 L 327.800781 80 L 86 80 Z M 86 32 "/></clipPath></defs><g id="cf974ef43a"><path style=" stroke:none;fill-rule:evenodd;fill:#ffffff;fill-opacity:1;" d="M 22.285156 30.105469 C 20.128906 30.585938 18.511719 32.113281 17.089844 35.027344 C 16.535156 36.167969 15.917969 37.871094 15.664062 38.96875 C 15.105469 41.398438 15.046875 44.972656 15.507812 48.210938 C 16.410156 54.53125 19.816406 62.675781 24.425781 69.550781 C 26.414062 72.515625 28.257812 74.820312 30.210938 76.777344 C 31.3125 77.882812 32.890625 79.199219 33.109375 79.199219 C 33.148438 79.199219 33.039062 79.023438 32.863281 78.804688 C 29.128906 74.152344 25.035156 67 22.496094 60.699219 C 20.574219 55.929688 19.542969 52.042969 19.050781 47.730469 C 18.898438 46.371094 18.921875 42.261719 19.09375 41.019531 C 19.460938 38.351562 20.363281 36.332031 21.816406 34.910156 C 22.578125 34.164062 23.328125 33.839844 24.296875 33.835938 C 25.09375 33.835938 25.238281 33.878906 27.59375 34.820312 C 33.34375 37.125 36.910156 38.195312 40.132812 38.597656 C 41.027344 38.707031 43.402344 38.746094 44.039062 38.65625 C 44.382812 38.609375 44.375 38.605469 43.003906 38.140625 C 39.335938 36.890625 35.796875 35.316406 30.554688 32.609375 C 25.890625 30.199219 25.511719 30.054688 23.839844 30.011719 C 23.113281 29.996094 22.664062 30.023438 22.285156 30.105469 M 55.804688 34.722656 C 54.566406 34.992188 52.898438 35.714844 49.703125 37.367188 C 46.4375 39.054688 44.921875 39.753906 42.976562 40.476562 C 39.953125 41.601562 36.589844 42.476562 33.785156 42.867188 L 32.828125 43 L 33.953125 43.101562 C 35.332031 43.222656 38.441406 43.164062 39.644531 42.996094 C 43.53125 42.449219 46.496094 41.621094 50.230469 40.03125 C 53.65625 38.578125 54.644531 38.25 55.609375 38.25 C 56.917969 38.257812 58.25 39.140625 59.28125 40.695312 C 60.324219 42.261719 60.976562 44.03125 61.316406 46.214844 C 61.449219 47.058594 61.449219 50.449219 61.316406 51.519531 C 60.925781 54.703125 60.160156 57.839844 58.945312 61.214844 C 56.46875 68.097656 52.980469 74.691406 49.085938 79.863281 C 48.167969 81.082031 47.710938 81.648438 46.671875 82.859375 C 46.441406 83.128906 46.433594 83.152344 46.597656 83.070312 C 47.449219 82.621094 48.917969 81.445312 50.183594 80.199219 C 55.785156 74.683594 61.050781 65.949219 63.859375 57.511719 C 65.136719 53.671875 65.675781 50.105469 65.476562 46.804688 C 65.238281 42.824219 63.902344 39.355469 61.726562 37.046875 C 61 36.277344 59.765625 35.402344 58.878906 35.027344 C 57.878906 34.605469 56.820312 34.5 55.804688 34.722656 "/><g clip-rule="nonzero" clip-path="url(#f6f8bbe0af)"><path style=" stroke:none;fill-rule:evenodd;fill:#ffffff;fill-opacity:1;" d="M 105.507812 32.523438 C 97.570312 34.65625 89.671875 43.921875 87.347656 53.832031 C 86.679688 56.683594 86.738281 63.191406 87.453125 65.277344 C 87.734375 66.097656 88.164062 67.058594 88.410156 67.410156 C 88.941406 68.164062 89.078125 68.597656 89.273438 70.175781 C 89.792969 74.371094 91.566406 77.40625 94.265625 78.726562 C 95.417969 79.289062 95.769531 79.351562 97.320312 79.25 C 99.910156 79.085938 101.332031 78.308594 104.117188 75.53125 C 107.558594 72.101562 110.566406 67.1875 113.996094 59.394531 C 117.5625 51.28125 118.921875 44.886719 117.980469 40.644531 C 116.746094 35.105469 113.355469 32.117188 108.351562 32.160156 C 107.507812 32.167969 106.226562 32.332031 105.507812 32.523438 M 106.078125 33.882812 C 101.929688 34.9375 96.109375 40.039062 92.917969 45.414062 C 88.851562 52.257812 87.582031 58.753906 89.164062 64.628906 C 89.414062 65.554688 89.867188 65.703125 89.867188 64.859375 C 89.867188 64.199219 90.960938 60.558594 92.117188 57.363281 C 93.242188 54.25 94.417969 51.703125 96.59375 47.664062 C 100.519531 40.375 106.4375 34.75 110.175781 34.75 C 112.015625 34.75 112.554688 35.78125 110.839844 36.015625 C 109.453125 36.207031 108.367188 36.773438 106.28125 38.40625 C 103.003906 40.96875 99.765625 45.472656 96.726562 51.691406 C 94.121094 57.023438 92.4375 61.667969 91.550781 65.984375 C 91.070312 68.300781 91.058594 68.273438 93.246094 69.132812 C 95.117188 69.867188 95.347656 69.902344 98.636719 69.921875 C 100.527344 69.929688 102.714844 69.855469 103.496094 69.753906 L 104.917969 69.566406 L 104.324219 70.042969 C 102.585938 71.441406 96.40625 71.648438 93.304688 70.410156 C 92.390625 70.046875 91.566406 69.632812 91.472656 69.488281 C 91.167969 69.035156 91.277344 70.617188 91.648438 72.042969 C 92.238281 74.304688 92.945312 75.679688 94.027344 76.679688 C 95.226562 77.785156 95.871094 77.992188 97.496094 77.800781 C 101.289062 77.351562 105.6875 72.273438 110.363281 62.949219 C 115.464844 52.785156 117.40625 44.699219 115.914062 39.808594 C 115.023438 36.878906 113.945312 35.542969 111.433594 34.269531 C 110.136719 33.613281 107.804688 33.445312 106.078125 33.882812 M 133.089844 41.75 C 132.652344 42.417969 128.5625 51.445312 126.589844 56.105469 L 125.320312 59.09375 L 124.597656 58.652344 C 122.890625 57.613281 120.9375 58.355469 118.5625 60.953125 C 114.773438 65.09375 114.007812 71.71875 117.320312 71.71875 C 118.023438 71.71875 118.363281 71.496094 119.589844 70.234375 C 120.382812 69.417969 121.199219 68.535156 121.402344 68.269531 C 121.84375 67.703125 122.285156 67.136719 122.730469 66.574219 L 123.691406 65.359375 L 123.84375 67.148438 C 124.054688 69.640625 124.414062 70.675781 125.375 71.519531 C 126.140625 72.191406 126.304688 72.234375 127.644531 72.144531 C 129.429688 72.019531 130.988281 71.277344 133.710938 69.246094 L 135.722656 67.742188 L 135.96875 68.984375 C 136.414062 71.214844 137.492188 72.265625 139.363281 72.292969 C 140.871094 72.316406 142.292969 71.335938 143.628906 69.34375 L 144.660156 67.808594 L 146.957031 67.648438 C 148.949219 67.511719 150.304688 67.1875 152.285156 66.375 C 152.6875 66.210938 152.71875 66.277344 152.585938 67 C 152.507812 67.445312 152.371094 68.566406 152.285156 69.492188 C 152.148438 71.015625 152.179688 71.230469 152.636719 71.6875 C 153.375 72.421875 153.769531 72.316406 154.476562 71.183594 C 156.617188 67.773438 159.742188 63.703125 160.386719 63.496094 C 160.566406 63.4375 160.582031 63.894531 160.4375 65.015625 C 160.113281 67.574219 160.382812 69.050781 161.347656 70.015625 C 162.109375 70.777344 162.238281 70.820312 163.429688 70.722656 C 165.503906 70.550781 168.15625 68.949219 172.359375 65.332031 L 173.582031 64.277344 L 173.417969 65.035156 C 173.324219 65.449219 173.242188 66.617188 173.230469 67.628906 C 173.167969 73.753906 177.703125 74.339844 184.070312 69.027344 L 186.203125 67.246094 L 186.347656 68.527344 C 186.496094 69.835938 186.878906 70.625 187.761719 71.449219 C 189.523438 73.089844 192.609375 71.542969 194.628906 68.011719 L 195.1875 67.03125 L 197.449219 66.921875 C 199.117188 66.84375 200.285156 66.625 201.902344 66.09375 L 204.09375 65.371094 L 204.09375 66.847656 C 204.09375 69.855469 205.707031 71.460938 208.929688 71.660156 C 212.671875 71.894531 217.246094 69.796875 223.101562 65.15625 C 223.972656 64.464844 224.746094 63.898438 224.816406 63.898438 C 224.890625 63.898438 224.949219 64.125 224.949219 64.402344 C 224.949219 65.191406 225.832031 66.429688 226.980469 67.253906 C 227.558594 67.667969 228.03125 68.082031 228.03125 68.175781 C 228.03125 68.273438 227.753906 68.417969 227.417969 68.503906 C 227.078125 68.585938 226.273438 69.1875 225.625 69.835938 C 224.539062 70.917969 224.453125 71.089844 224.519531 72.007812 C 224.582031 72.84375 224.6875 73.023438 225.1875 73.144531 C 226.777344 73.527344 229.03125 71.910156 230.378906 69.425781 L 230.992188 68.289062 L 234.074219 67.660156 C 237.410156 66.980469 239.308594 66.347656 241.230469 65.269531 L 242.460938 64.578125 L 242.238281 65.359375 C 242.113281 65.792969 242.015625 67 242.015625 68.042969 C 242.03125 73.726562 245.847656 74.335938 251.464844 69.550781 C 252.507812 68.660156 253.40625 68.011719 253.460938 68.109375 C 253.515625 68.203125 253.628906 68.578125 253.714844 68.9375 C 253.914062 69.773438 255.324219 71.34375 256.175781 71.683594 C 257.308594 72.140625 259.53125 72.371094 260.691406 72.15625 C 262.339844 71.851562 265.375 70.296875 267.230469 68.808594 C 268.132812 68.082031 268.964844 67.324219 269.078125 67.117188 C 269.5 66.363281 269.683594 66.78125 269.785156 68.730469 C 269.933594 71.574219 270.8125 72.707031 272.871094 72.707031 C 274.890625 72.707031 277.179688 71.410156 280.640625 68.3125 L 282.65625 66.507812 L 282.808594 68.015625 C 283.082031 70.671875 284.039062 71.71875 286.1875 71.71875 C 288.023438 71.71875 291.136719 70.285156 293.34375 68.425781 C 295.214844 66.851562 295.097656 66.90625 295.097656 67.65625 C 295.097656 68.542969 295.535156 69.777344 296.144531 70.617188 C 297.214844 72.085938 300.046875 72.777344 302.671875 72.214844 C 304.195312 71.890625 307.304688 70.449219 309.042969 69.265625 C 309.742188 68.789062 310.363281 68.398438 310.425781 68.398438 C 310.488281 68.398438 310.46875 68.710938 310.386719 69.089844 C 309.859375 71.484375 312.203125 73.515625 314.0625 72.273438 C 315.019531 71.636719 316.40625 70.253906 317.292969 69.050781 C 317.75 68.433594 318.195312 67.925781 318.28125 67.929688 C 318.367188 67.929688 318.460938 68.417969 318.488281 69.015625 C 318.558594 70.535156 319.199219 71.523438 320.371094 71.9375 C 321.660156 72.386719 323.011719 72.007812 325.136719 70.59375 C 327.511719 69.015625 327.800781 68.695312 327.800781 67.648438 L 327.800781 66.742188 L 326.320312 67.9375 C 323.675781 70.074219 321.074219 71.105469 320.535156 70.234375 C 320.273438 69.816406 320.421875 67.105469 320.800781 65.289062 C 321.253906 63.117188 321.261719 61.980469 320.828125 60.945312 C 320.425781 59.984375 319.839844 59.632812 318.648438 59.632812 C 317.195312 59.632812 315.929688 60.441406 313.742188 62.773438 C 309.800781 66.96875 308.84375 67.839844 307.058594 68.863281 C 304.195312 70.5 302.402344 71.0625 300.371094 70.964844 C 298.246094 70.859375 297.484375 70.269531 297.292969 68.574219 C 296.984375 65.816406 300.179688 60.820312 302.257812 60.816406 C 302.722656 60.816406 303.152344 61.5 303.152344 62.230469 C 303.152344 62.976562 303.859375 63.125 304.375 62.488281 C 305.011719 61.703125 304.917969 61.109375 304.007812 60.199219 C 303.351562 59.542969 303.019531 59.394531 302.222656 59.394531 C 300.363281 59.394531 298.382812 60.632812 296.769531 62.804688 C 293.128906 67.710938 286.222656 71.839844 285.117188 69.773438 C 284.652344 68.902344 284.847656 66.535156 285.617188 63.808594 C 286.351562 61.199219 286.371094 60.5 285.707031 60.246094 C 285.152344 60.035156 284.96875 60.234375 284.078125 61.996094 C 282.1875 65.75 275.769531 71.007812 273.078125 71.007812 C 272.242188 71.007812 272.0625 70.917969 271.867188 70.398438 C 271.496094 69.425781 271.597656 66.917969 272.09375 64.796875 C 272.835938 61.605469 276.21875 52.578125 276.9375 51.859375 C 277.167969 51.628906 278.773438 51.511719 283.210938 51.40625 C 289.246094 51.261719 289.882812 51.15625 289.402344 50.382812 C 289.222656 50.089844 288.265625 50.039062 283.492188 50.066406 C 280.148438 50.085938 277.796875 50.007812 277.796875 49.878906 C 277.796875 49.757812 278.273438 48.621094 278.855469 47.347656 C 280.734375 43.253906 281.011719 42.074219 280.195312 41.636719 C 279.859375 41.457031 279.664062 41.5 279.394531 41.804688 C 278.925781 42.335938 277.617188 44.976562 276.488281 47.664062 C 275.992188 48.835938 275.472656 49.914062 275.332031 50.054688 C 275.1875 50.199219 273.523438 50.488281 271.636719 50.699219 C 265.820312 51.351562 263.3125 52.273438 260.957031 54.628906 C 259.847656 55.742188 259.550781 56.195312 259.550781 56.769531 C 259.550781 57.867188 260.039062 57.691406 261.847656 55.933594 C 264.507812 53.347656 267.042969 52.429688 272.917969 51.914062 C 274.464844 51.777344 274.765625 51.804688 274.648438 52.078125 C 273.960938 53.675781 272.085938 58.457031 271.128906 61.054688 C 270.050781 63.984375 269.839844 64.367188 268.601562 65.636719 C 264.597656 69.738281 260.203125 71.664062 257.355469 70.558594 C 256.425781 70.199219 255.730469 68.964844 255.8125 67.816406 C 255.871094 66.925781 255.925781 66.867188 256.824219 66.691406 C 261.667969 65.734375 264.589844 62.015625 262.410156 59.578125 C 261.800781 58.894531 261.582031 58.804688 260.542969 58.820312 C 258.328125 58.851562 256.019531 60.867188 254.316406 64.253906 C 253.699219 65.484375 253.101562 66.203125 251.617188 67.496094 C 249.40625 69.425781 246.925781 70.96875 245.738281 71.164062 C 245.019531 71.277344 244.84375 71.210938 244.496094 70.675781 C 243.503906 69.164062 243.886719 66.25 245.832031 60.5 C 246.835938 57.53125 249.335938 51.28125 249.644531 50.972656 C 249.695312 50.917969 252.078125 50.792969 254.941406 50.691406 L 260.140625 50.507812 L 260.140625 49.324219 L 255.21875 49.390625 L 250.292969 49.460938 L 250.6875 48.5625 C 251.773438 46.078125 253.148438 42.558594 253.148438 42.257812 C 253.148438 42.070312 252.988281 41.78125 252.789062 41.617188 C 252.167969 41.101562 251.410156 42.125 249.832031 45.613281 C 247.886719 49.902344 247.957031 49.808594 246.71875 49.875 C 243.101562 50.074219 237.464844 51.054688 236.945312 51.570312 C 236.828125 51.683594 236.804688 51.960938 236.890625 52.179688 C 237.066406 52.640625 237.433594 52.617188 241.65625 51.855469 C 244.890625 51.269531 247.226562 51.070312 247.226562 51.371094 C 247.226562 51.496094 246.785156 52.632812 246.246094 53.898438 C 245.707031 55.160156 244.789062 57.417969 244.207031 58.910156 C 242.890625 62.273438 242.78125 62.441406 241.113281 63.589844 C 238.683594 65.269531 236.769531 65.933594 232.757812 66.507812 C 230.574219 66.816406 229.167969 66.53125 227.949219 65.523438 C 227.171875 64.882812 227.082031 64.695312 227.082031 63.675781 C 227.082031 62.667969 227.195312 62.421875 228.089844 61.460938 C 229.542969 59.902344 230.871094 59.675781 231.339844 60.910156 C 231.503906 61.34375 231.683594 61.457031 232.050781 61.363281 C 232.695312 61.191406 232.84375 60.914062 232.667969 60.203125 C 232.484375 59.476562 231.234375 58.6875 230.269531 58.683594 C 229.140625 58.683594 227.195312 59.789062 225.585938 61.34375 C 223.359375 63.5 218.464844 67.070312 215.945312 68.375 C 212.503906 70.160156 209.617188 70.726562 207.820312 69.976562 C 206.714844 69.515625 206.414062 69.035156 206.378906 67.644531 L 206.347656 66.40625 L 207.347656 66.230469 C 208.828125 65.972656 210.304688 65.25 211.425781 64.238281 C 212.769531 63.023438 213.179688 62.167969 213.035156 60.886719 C 212.710938 57.988281 209.652344 57.738281 206.976562 60.390625 C 206.28125 61.082031 205.566406 61.921875 205.390625 62.257812 C 204.605469 63.761719 201.394531 65.25 198.113281 65.632812 C 196.972656 65.765625 195.992188 65.828125 195.933594 65.769531 C 195.875 65.710938 195.925781 65.238281 196.042969 64.71875 C 196.59375 62.351562 196.152344 60.128906 194.945312 59.179688 C 193.160156 57.773438 189.863281 59.652344 187.421875 63.46875 C 186.054688 65.613281 182.011719 69.109375 179.328125 70.476562 C 177.851562 71.230469 176.234375 71.320312 175.765625 70.679688 C 174.402344 68.816406 175.644531 62.8125 179.144531 54.367188 C 180.144531 51.949219 180.832031 50.59375 181.101562 50.507812 C 181.328125 50.4375 183.742188 50.335938 186.464844 50.28125 C 189.1875 50.226562 191.496094 50.175781 191.59375 50.167969 C 191.691406 50.160156 191.773438 49.9375 191.773438 49.671875 C 191.773438 48.808594 190.808594 48.671875 185.992188 48.847656 C 182.292969 48.980469 181.539062 48.957031 181.652344 48.691406 C 181.726562 48.519531 182.222656 47.382812 182.757812 46.167969 C 184.386719 42.445312 184.578125 41.023438 183.417969 41.191406 C 182.878906 41.265625 182.199219 42.460938 179.921875 47.316406 L 179.09375 49.085938 L 176.011719 49.367188 C 172.394531 49.699219 169.171875 50.109375 168.667969 50.300781 C 168.1875 50.488281 168.210938 51.316406 168.707031 51.503906 C 168.921875 51.585938 169.695312 51.53125 170.421875 51.375 C 172.089844 51.027344 178.207031 50.492188 178.394531 50.679688 C 178.472656 50.757812 178.257812 51.496094 177.914062 52.324219 C 177.574219 53.148438 176.648438 55.421875 175.859375 57.367188 C 175.070312 59.316406 174.140625 61.28125 173.796875 61.734375 C 172.394531 63.578125 167.410156 67.523438 164.824219 68.839844 C 162.472656 70.035156 162.027344 69.390625 162.429688 65.371094 C 162.832031 61.304688 162.53125 60.648438 160.644531 61.492188 C 159.726562 61.90625 158.195312 63.382812 155.816406 66.148438 C 155.269531 66.789062 154.769531 67.261719 154.714844 67.203125 C 154.65625 67.144531 154.957031 65.710938 155.386719 64.015625 C 156.09375 61.226562 156.132812 60.894531 155.804688 60.519531 C 154.953125 59.546875 154.421875 60.148438 153.445312 63.1875 C 153.039062 64.449219 152.972656 64.515625 151.367188 65.3125 C 149.910156 66.03125 149.433594 66.144531 147.476562 66.230469 C 145.371094 66.320312 145.257812 66.300781 145.433594 65.882812 C 146.097656 64.28125 146.101562 61.855469 145.4375 60.574219 C 144.085938 57.960938 139.480469 59.6875 137.199219 63.660156 C 136.351562 65.136719 135.753906 65.742188 133.238281 67.671875 C 130.875 69.480469 129.566406 70.214844 128.160156 70.53125 C 127.097656 70.765625 126.945312 70.746094 126.5 70.300781 C 126.058594 69.859375 126.007812 69.527344 126.015625 67.148438 C 126.019531 65.167969 126.15625 63.976562 126.554688 62.476562 C 127.179688 60.101562 129.902344 53.242188 132.679688 47.039062 C 133.769531 44.609375 134.660156 42.460938 134.660156 42.261719 C 134.660156 41.058594 133.738281 40.757812 133.089844 41.75 M 287.527344 54.9375 C 286.324219 57.09375 286.175781 57.617188 286.644531 58.085938 C 287.1875 58.628906 287.445312 58.535156 288.167969 57.535156 C 289.277344 56.007812 289.761719 54.722656 289.503906 53.992188 C 289.09375 52.820312 288.566406 53.074219 287.527344 54.9375 M 121.726562 60.296875 C 119.226562 62.105469 117.09375 65.664062 116.925781 68.308594 C 116.84375 69.621094 116.882812 69.820312 117.238281 69.820312 C 118.125 69.820312 122.710938 64.359375 123.957031 61.824219 C 124.433594 60.851562 124.515625 60.472656 124.320312 60.15625 C 123.890625 59.472656 122.78125 59.53125 121.726562 60.296875 M 209.355469 61.152344 C 208.277344 62.164062 206.691406 64.679688 206.964844 64.949219 C 207.183594 65.167969 208.640625 64.585938 209.742188 63.835938 C 211.34375 62.746094 212.125 61.121094 211.394531 60.390625 C 210.917969 59.914062 210.519531 60.0625 209.355469 61.152344 M 193.21875 60.957031 C 192.933594 61.320312 192.71875 61.9375 192.71875 62.398438 C 192.71875 63.25 193.523438 65.082031 193.898438 65.082031 C 194.433594 65.082031 194.773438 62.386719 194.40625 61.070312 C 194.179688 60.257812 193.796875 60.21875 193.21875 60.957031 M 259.992188 60.757812 C 259.21875 61.269531 257.675781 63.117188 256.96875 64.378906 C 256.460938 65.277344 256.457031 65.320312 256.890625 65.320312 C 257.6875 65.320312 260.25 63.878906 260.824219 63.105469 C 262.230469 61.21875 261.671875 59.648438 259.992188 60.757812 M 142.8125 61.566406 C 142.332031 62.5 142.460938 64.304688 143.078125 65.246094 L 143.511719 65.90625 L 143.855469 65.078125 C 144.308594 64 144.351562 61.714844 143.929688 61.207031 C 143.464844 60.648438 143.253906 60.71875 142.8125 61.566406 M 317.082031 62.132812 C 314.421875 64.203125 311.824219 68.6875 312.265625 70.445312 C 312.480469 71.300781 313.179688 71.132812 314.371094 69.941406 C 316.832031 67.484375 319.269531 63.570312 319.269531 62.085938 C 319.269531 61.410156 319.183594 61.289062 318.714844 61.289062 C 318.410156 61.289062 317.675781 61.667969 317.082031 62.132812 M 190.089844 62.984375 C 189.148438 64.300781 188.464844 66.296875 188.460938 67.734375 C 188.449219 69.964844 188.996094 70.765625 190.207031 70.304688 C 190.941406 70.027344 192.285156 68.632812 192.855469 67.554688 L 193.3125 66.699219 L 192.550781 66.058594 C 191.691406 65.335938 191.058594 64.023438 191.058594 62.957031 C 191.058594 62.039062 190.757812 62.046875 190.089844 62.984375 M 140.035156 63.265625 C 138.292969 65.554688 137.597656 68.726562 138.527344 70.148438 C 138.886719 70.695312 139.074219 70.785156 139.59375 70.65625 C 140.378906 70.464844 141.734375 69.175781 142.347656 68.039062 L 142.804688 67.1875 L 142.191406 66.667969 C 141.347656 65.957031 141.007812 65.203125 140.84375 63.683594 L 140.703125 62.390625 Z M 226.902344 70.480469 C 225.902344 71.351562 225.675781 71.71875 226.132812 71.71875 C 226.4375 71.71875 228.265625 70.070312 228.265625 69.792969 C 228.265625 69.414062 227.925781 69.585938 226.902344 70.480469 "/></g></g></svg>